<svg width="90" height="90" viewBox="0 0 90 90" fill="none" xmlns="http://www.w3.org/2000/svg">
<rect x="5" y="5" width="80" height="80" rx="13.3333" fill="#FFFDF9"/>
<path d="M33.2584 26.875C34.9832 26.875 36.5576 27.0286 37.9816 27.3326C39.4056 27.6366 40.6216 28.1358 41.636 28.8302C42.6504 29.5246 43.4376 30.4462 43.9976 31.5982C44.5576 32.7502 44.836 34.171 44.836 35.8638C44.836 37.691 44.42 39.2142 43.5912 40.4334C42.7624 41.6526 41.5336 42.651 39.9112 43.4286C42.1448 44.0718 43.812 45.1982 44.9128 46.8046C46.0136 48.411 46.564 50.3502 46.564 52.619C46.564 54.4462 46.2088 56.0302 45.4984 57.3678C44.788 58.7054 43.8312 59.7966 42.628 60.6414C41.4248 61.4894 40.0552 62.1134 38.516 62.5198C36.9672 62.9262 35.3704 63.131 33.7704 63.1278H16.1992V26.875H33.2584ZM32.244 41.547C33.6648 41.547 34.8328 41.2078 35.748 40.5326C36.6632 39.8542 37.1208 38.7566 37.1176 37.2334C37.1176 36.3886 36.964 35.6942 36.66 35.1534C36.356 34.6126 35.9496 34.187 35.4408 33.883C34.932 33.579 34.3496 33.3678 33.6904 33.2494C33.012 33.131 32.324 33.0702 31.6328 33.0734H24.1736V41.5534L32.244 41.547ZM32.7016 56.9294C33.4536 56.9326 34.2024 56.8558 34.9352 56.7022C35.6456 56.5486 36.2728 56.2958 36.8136 55.9406C37.3544 55.5854 37.7864 55.1022 38.1096 54.4942C38.4296 53.8862 38.5928 53.1054 38.5928 52.1582C38.5928 50.299 38.068 48.9678 37.0184 48.1742C35.9688 47.3774 34.58 46.9806 32.8552 46.9806H24.1736V56.9326L32.7016 56.9294ZM56.5928 56.1678C57.6744 57.2174 59.2328 57.7422 61.2648 57.7422C62.7208 57.7422 63.972 57.3774 65.0216 56.651C66.0712 55.9246 66.7144 55.1534 66.9512 54.3406H73.2968C72.2824 57.4894 70.724 59.739 68.6248 61.0926C66.5256 62.4462 63.988 63.1246 61.0088 63.1246C58.9448 63.1246 57.0824 62.795 55.4248 62.1358C53.7672 61.4766 52.3624 60.5358 51.2104 59.3166C50.0584 58.0974 49.1688 56.6446 48.5448 54.9518C47.9208 53.259 47.6072 51.3966 47.6072 49.3678C47.6072 47.4062 47.9272 45.579 48.5704 43.8862C49.2136 42.1934 50.1288 40.731 51.3128 39.4958C52.4968 38.2606 53.9112 37.2878 55.5528 36.5774C57.1944 35.867 59.0152 35.5118 61.012 35.5118C63.2456 35.5118 65.1912 35.9438 66.852 36.8078C68.5096 37.6718 69.8728 38.8302 70.9384 40.2862C72.004 41.7422 72.7752 43.3998 73.2488 45.2622C73.7224 47.1246 73.892 49.0702 73.7576 51.1022H54.82C54.9192 53.4286 55.5112 55.1214 56.5928 56.1678ZM64.7432 42.3598C63.8792 41.4126 62.5672 40.939 60.8072 40.939C59.6552 40.939 58.6984 41.1342 57.94 41.5214C57.1784 41.9118 56.5704 42.3918 56.1128 42.9678C55.6552 43.5438 55.3352 44.1518 55.1496 44.795C54.964 45.4382 54.852 46.0142 54.82 46.5198H66.548C66.2056 44.6958 65.604 43.307 64.7432 42.3598ZM53.5848 28.715H68.2376V32.779H53.5848V28.715Z" fill="#000008"/>
</svg>
