<svg width="99" height="90" viewBox="0 0 99 90" fill="none" xmlns="http://www.w3.org/2000/svg">
<path d="M92.7853 74.1664C91.3532 74.1802 89.9849 74.7605 88.9796 75.7804C87.9742 76.8004 87.4137 78.177 87.4205 79.6091C87.4274 81.0412 88.0012 82.4124 89.0163 83.4226C90.0314 84.4329 91.4053 85 92.8374 85C94.2696 85 95.6434 84.4329 96.6585 83.4226C97.6736 82.4124 98.2474 81.0412 98.2543 79.6091C98.2612 78.177 97.7006 76.8004 96.6953 75.7804C95.69 74.7605 94.3216 74.1802 92.8895 74.1664H92.7853ZM92.7853 84.3798C91.846 84.3955 90.9231 84.1322 90.1334 83.6234C89.3437 83.1145 88.7227 82.3829 88.3488 81.5211C87.9748 80.6592 87.8649 79.7059 88.0328 78.7816C88.2007 77.8573 88.639 77.0035 89.2921 76.3282C89.9452 75.653 90.7839 75.1866 91.7022 74.988C92.6204 74.7894 93.5769 74.8675 94.4507 75.2125C95.3245 75.5575 96.0763 76.1539 96.6112 76.9262C97.1461 77.6985 97.4399 78.6121 97.4555 79.5514V79.6311C97.4818 80.8634 97.0177 82.0556 96.1651 82.9456C95.3125 83.8357 94.1414 84.3507 92.9092 84.3774H92.7865M71.9918 72.6865H60.2212V54.2532C60.2212 49.8576 60.1427 44.1991 54.0993 44.1991C47.9687 44.1991 47.0307 48.9883 47.0307 53.9332V72.6852H35.2601V34.7789H46.5599V39.9592H46.7181C47.8489 38.0257 49.483 36.4351 51.4463 35.3568C53.4097 34.2786 55.6287 33.753 57.8671 33.8361C69.7971 33.8361 71.9967 41.6831 71.9967 51.8917L71.9918 72.6865ZM21.979 29.5974C20.628 29.5977 19.3073 29.1973 18.1839 28.4469C17.0604 27.6966 16.1848 26.6299 15.6675 25.3819C15.1503 24.1338 15.0148 22.7605 15.2781 21.4354C15.5415 20.1103 16.1918 18.8931 17.1469 17.9377C18.102 16.9822 19.319 16.3314 20.644 16.0676C21.9689 15.8038 23.3424 15.9389 24.5906 16.4556C25.8388 16.9724 26.9058 17.8477 27.6565 18.9709C28.4073 20.094 28.8081 21.4146 28.8084 22.7656C28.8085 23.6626 28.632 24.5508 28.2889 25.3796C27.9458 26.2084 27.4428 26.9615 26.8086 27.5959C26.1744 28.2303 25.4215 28.7336 24.5929 29.077C23.7642 29.4204 22.876 29.5973 21.979 29.5974ZM27.8643 72.6865H16.0814V34.7789H27.8643V72.6865ZM77.8599 5.00541H10.1667C8.63024 4.98807 7.14977 5.58143 6.05058 6.65509C4.9514 7.72876 4.32344 9.1949 4.30469 10.7313V78.7054C4.3228 80.2426 4.95036 81.7097 6.04951 82.7845C7.14866 83.8593 8.62948 84.4538 10.1667 84.4375H77.8599C79.4002 84.4568 80.8852 83.864 81.9886 82.7892C83.0921 81.7145 83.7239 80.2457 83.7452 78.7054V10.7264C83.7233 9.18694 83.0911 7.71915 81.9875 6.6455C80.884 5.57186 79.3994 4.9802 77.8599 5.00051M93.6448 79.9266C93.8464 79.9286 94.0462 79.8892 94.2319 79.8108C94.4176 79.7324 94.5852 79.6166 94.7244 79.4707C94.8635 79.3248 94.9711 79.1519 95.0406 78.9627C95.1101 78.7734 95.14 78.5719 95.1284 78.3707C95.1284 77.2672 94.4626 76.74 93.0967 76.74H90.8898V82.5174H91.7198V79.999H92.7399L92.7632 80.0296L94.3462 82.5174H95.2339L93.5308 79.9426L93.6448 79.9266ZM92.6848 79.3479H91.7223V77.3947H92.9422C93.5725 77.3947 94.2909 77.4977 94.2909 78.3229C94.2909 79.2719 93.5639 79.3479 92.6799 79.3479" fill="#FFFDF9"/>
</svg>
