<svg width="90" height="90" viewBox="0 0 90 90" fill="none" xmlns="http://www.w3.org/2000/svg">
<path d="M49.4328 45.0701C49.4328 56.4508 40.2696 65.6766 28.9667 65.6766C17.6639 65.6766 8.5 56.4508 8.5 45.0701C8.5 33.6894 17.6632 24.4629 28.9667 24.4629C40.2703 24.4629 49.4328 33.6894 49.4328 45.0701Z" fill="#FFFDF9"/>
<path d="M71.8847 45.07C71.8847 55.7825 67.3031 64.4701 61.6513 64.4701C55.9996 64.4701 51.418 55.7825 51.418 45.07C51.418 34.3575 55.9989 25.6699 61.6507 25.6699C67.3024 25.6699 71.8847 34.3548 71.8847 45.07Z" fill="#FFFDF9"/>
<path d="M77.4685 62.4493C79.4565 62.4493 81.0676 54.6656 81.0676 45.0699C81.0676 35.4713 79.4558 27.6904 77.4685 27.6904C75.4812 27.6904 73.8701 35.472 73.8701 45.0699C73.8701 54.6677 75.4805 62.4493 77.4685 62.4493Z" fill="#FFFDF9"/>
</svg>
